<svg class="chandelier" xmlns:dc="http://purl.org/dc/elements/1.1/" xmlns:cc="http://creativecommons.org/ns#" xmlns:rdf="http://www.w3.org/1999/02/22-rdf-syntax-ns#" xmlns:svg="http://www.w3.org/2000/svg" xmlns="http://www.w3.org/2000/svg" xmlns:sodipodi="http://sodipodi.sourceforge.net/DTD/sodipodi-0.dtd" xmlns:inkscape="http://www.inkscape.org/namespaces/inkscape" version="1.1" x="0px" y="0px" viewBox="5 30 90 50" xml:space="preserve"><path style="text-indent:0;text-transform:none;direction:ltr;block-progression:tb;baseline-shift:baseline;enable-background:accumulate;" d="m 22.08028,6 c -1.826115,0 -3.064819,1.5873091 -3.775021,3.2442396 -0.710201,1.6569304 -1.06075,3.6748574 -1.06075,5.8957814 0,2.220925 0.350549,4.238852 1.06075,5.895782 0.159063,0.371102 0.349311,0.745717 0.561573,1.091811 l -0.779963,0 a 1.996905,1.9966548 0 0 0 -0.187191,0 1.996905,1.9966548 0 0 0 -1.809514,1.996455 l 0,39.929104 -1.996705,0 a 1.996905,1.9966548 0 0 0 -0.187191,0 1.9988978,1.9986474 0 1 0 0.187191,3.99291 l 6.052513,0 c 0.518805,6.683114 6.101571,11.978731 12.916187,11.978731 l 14.975289,0 0,4.086494 c -2.29191,0.241582 -4.377746,0.910615 -6.083711,1.934066 -2.190879,1.314362 -3.899815,3.405116 -3.899815,5.958171 A 1.996905,1.9966548 0 0 0 40.050627,94 l 19.967053,0 a 1.996905,1.9966548 0 0 0 1.996705,-1.996455 c 0,-2.553055 -1.708936,-4.643809 -3.899815,-5.958171 -1.705965,-1.023451 -3.791801,-1.692484 -6.083711,-1.934066 l 0,-4.086494 14.97529,0 c 6.814615,0 12.397381,-5.295617 12.916187,-11.978731 l 2.059102,0 3.993411,0 a 1.996905,1.9966548 0 1 0 0,-3.99291 l -1.996706,0 0,-39.929104 a 1.996905,1.9966548 0 0 0 -1.809514,-1.996455 1.996905,1.9966548 0 0 0 -0.187191,0 l -0.779963,0 c 0.212262,-0.346094 0.40251,-0.720709 0.561574,-1.091811 0.710201,-1.65693 1.060749,-3.674857 1.060749,-5.895782 0,-2.220924 -0.350548,-4.238851 -1.060749,-5.8957814 C 81.052846,7.5873091 79.814143,6 77.988028,6 c -1.826115,0 -3.064819,1.5873091 -3.775021,3.2442396 -0.710201,1.6569304 -1.06075,3.6748574 -1.06075,5.8957814 0,2.220925 0.350549,4.238852 1.06075,5.895782 0.159063,0.371102 0.349311,0.745717 0.561573,1.091811 l -0.779963,0 a 1.996905,1.9966548 0 0 0 -1.996705,1.996455 l 0,39.929104 -1.996706,0 a 1.996905,1.9966548 0 0 0 -0.187191,0 1.9988978,1.9986474 0 1 0 0.187191,3.99291 l 5.958918,0 c -0.482357,4.535937 -4.275904,7.985821 -8.953975,7.985821 l -14.97529,0 0,-11.978731 1.996705,0 3.993411,0 a 1.996905,1.9966548 0 1 0 0,-3.992911 l -1.996705,0 0,-35.936193 a 1.9969049,1.9966547 0 0 0 -1.996706,-1.996455 l -0.779963,0 c 0.212262,-0.346094 0.40251,-0.720709 0.561574,-1.091811 0.710201,-1.65693 1.060749,-3.674857 1.060749,-5.895782 0,-2.220924 -0.350548,-4.238851 -1.060749,-5.8957814 C 53.098972,7.5873091 51.860269,6 50.034154,6 c -1.826115,0 -3.064819,1.5873091 -3.775021,3.2442396 -0.710201,1.6569304 -1.06075,3.6748574 -1.06075,5.8957814 0,2.220925 0.350549,4.238852 1.06075,5.895782 0.159063,0.371102 0.349311,0.745717 0.561573,1.091811 l -0.779963,0 a 1.9969049,1.9966547 0 0 0 -0.187191,0 1.9969049,1.9966547 0 0 0 -1.809514,1.996455 l 0,35.936193 -1.996705,0 a 1.996905,1.9966548 0 0 0 -0.187192,0 1.998898,1.9986477 0 1 0 0.187192,3.992911 l 5.990115,0 0,11.978731 -14.975289,0 c -4.678072,0 -8.471618,-3.449884 -8.953975,-7.985821 l 1.965506,0 3.993411,0 a 1.996905,1.9966548 0 1 0 0,-3.99291 l -1.996705,0 0,-39.929104 A 1.996905,1.9966548 0 0 0 26.07369,22.127614 l -0.779963,0 c 0.212262,-0.346094 0.40251,-0.720709 0.561574,-1.091811 0.710201,-1.65693 1.060749,-3.674857 1.060749,-5.895782 0,-2.220924 -0.350548,-4.238851 -1.060749,-5.8957814 C 25.145099,7.5873091 23.906396,6 22.08028,6 z m 0,4.367246 c 0.08097,0.08045 0.24993,0.271148 0.467978,0.779865 0.373796,0.872081 0.686367,2.354693 0.686367,3.99291 0,1.638218 -0.312571,3.120831 -0.686367,3.992911 -0.218048,0.508713 -0.387016,0.699415 -0.467978,0.779865 -0.08097,-0.08045 -0.24993,-0.271155 -0.467978,-0.779865 -0.373795,-0.87208 -0.686367,-2.354693 -0.686367,-3.992911 0,-1.638217 0.312572,-3.120829 0.686367,-3.99291 0.218048,-0.508714 0.387015,-0.699415 0.467978,-0.779865 z m 27.953874,0 c 0.08097,0.08045 0.24993,0.271148 0.467977,0.779865 0.373797,0.872081 0.686368,2.354693 0.686368,3.99291 0,1.638218 -0.312571,3.120831 -0.686368,3.992911 -0.218047,0.508713 -0.387015,0.699415 -0.467977,0.779865 -0.08097,-0.08045 -0.24993,-0.271155 -0.467978,-0.779865 -0.373795,-0.87208 -0.686368,-2.354693 -0.686368,-3.992911 0,-1.638217 0.312573,-3.120829 0.686368,-3.99291 0.218048,-0.508714 0.387015,-0.699415 0.467978,-0.779865 z m 27.953874,0 c 0.08097,0.08045 0.24993,0.271148 0.467977,0.779865 0.373797,0.872081 0.686368,2.354693 0.686368,3.99291 0,1.638218 -0.312571,3.12083 -0.686368,3.992911 -0.218047,0.508713 -0.387015,0.699415 -0.467977,0.779865 -0.08097,-0.08045 -0.24993,-0.271155 -0.467978,-0.779865 -0.373795,-0.872081 -0.686368,-2.354693 -0.686368,-3.992911 0,-1.638217 0.312573,-3.120829 0.686368,-3.99291 0.218048,-0.508714 0.387015,-0.699415 0.467978,-0.779865 z m -57.904454,15.753279 3.993411,0 0,37.932648 -3.993411,0 0,-37.932648 z m 27.953874,0 3.993411,0 0,33.939737 -3.993411,0 0,-33.939737 z m 27.953874,0 3.993411,0 0,37.932648 -3.993411,0 0,-37.932648 z m -25.957168,61.89011 c 2.433145,0 4.598867,0.612785 6.021314,1.466146 0.289271,0.173541 0.405319,0.353534 0.62397,0.530309 l -13.290569,0 c 0.218651,-0.176775 0.3347,-0.356768 0.62397,-0.530309 1.422447,-0.853361 3.58817,-1.466146 6.021315,-1.466146 z" fill="#000000" fill-opacity="1" stroke="none" marker="none" visibility="visible" display="inline" overflow="visible"/></svg>