<?xml version="1.0" encoding="UTF-8" standalone="no"?>
<!-- Created with Inkscape (http://www.inkscape.org/) -->

<svg
   xmlns:dc="http://purl.org/dc/elements/1.1/"
   xmlns:cc="http://creativecommons.org/ns#"
   xmlns:rdf="http://www.w3.org/1999/02/22-rdf-syntax-ns#"
   xmlns:svg="http://www.w3.org/2000/svg"
   xmlns="http://www.w3.org/2000/svg"
   xmlns:sodipodi="http://sodipodi.sourceforge.net/DTD/sodipodi-0.dtd"
   xmlns:inkscape="http://www.inkscape.org/namespaces/inkscape"
   width="210mm"
   height="297mm"
   viewBox="0 0 744.09448819 1052.3622047"
   id="svg2"
   version="1.1"
   inkscape:version="0.91 r13725"
   sodipodi:docname="dessin.svg">
  <defs
     id="defs4" />
  <sodipodi:namedview
     id="base"
     pagecolor="#ffffff"
     bordercolor="#666666"
     borderopacity="1.0"
     inkscape:pageopacity="0.0"
     inkscape:pageshadow="2"
     inkscape:zoom="0.54"
     inkscape:cx="330.1985"
     inkscape:cy="436.52696"
     inkscape:document-units="px"
     inkscape:current-layer="layer2"
     showgrid="false"
     inkscape:window-width="1440"
     inkscape:window-height="851"
     inkscape:window-x="0"
     inkscape:window-y="1"
     inkscape:window-maximized="1" />
  <metadata
     id="metadata7">
    <rdf:RDF>
      <cc:Work
         rdf:about="">
        <dc:format>image/svg+xml</dc:format>
        <dc:type
           rdf:resource="http://purl.org/dc/dcmitype/StillImage" />
        <dc:title></dc:title>
      </cc:Work>
    </rdf:RDF>
  </metadata>
  <g
     inkscape:label="Calque 1"
     inkscape:groupmode="layer"
     id="layer1">
    <g
       id="g4145"
       inkscape:export-xdpi="89.099998"
       inkscape:export-ydpi="89.099998">
      <rect
         y="131.30957"
         x="69.736839"
         height="502.63159"
         width="64.473686"
         id="rect3341"
         style="opacity:1;fill:none;fill-opacity:1;stroke:#000000;stroke-width:4;stroke-linecap:round;stroke-linejoin:round;stroke-miterlimit:4;stroke-dasharray:none;stroke-dashoffset:0;stroke-opacity:1" />
      <path
         inkscape:connector-curvature="0"
         id="path4143"
         d="m 100,128.67799 c -0.438596,-2.19298 -0.877193,-4.38596 -1.315789,-6.57894 -0.438597,0.43859 -0.877193,1.75438 -1.31579,1.31579 -0.620269,-0.62027 0,-1.75439 0,-2.63158 0,-1.75439 0.438597,4.82456 -1.315789,1.31579 -0.392293,-0.78459 0,-1.75439 0,-2.63158 0,-0.4386 0,1.75438 0,1.31579 0,-0.8772 0,-1.75439 0,-2.63158 0,-0.4386 0.310134,1.00565 0,1.31579 -0.310135,0.31013 -1.005655,0.31013 -1.31579,0 -0.310134,-0.31014 0,-0.8772 0,-1.31579 0,-0.4386 -0.438596,-1.31579 0,-1.31579 0.438597,0 0.438597,1.31579 0,1.31579 -0.438596,0 0.392293,-1.11964 0,-1.31579 -0.784585,-0.39229 -1.754386,0 -2.631579,0 -0.438596,0 1.119643,0.39229 1.31579,0 0.392292,-0.78459 0,-1.75439 0,-2.63158 0,-0.4386 0,1.75439 0,1.31579 0,-0.87719 0,-1.75439 0,-2.63158 0,-0.4386 0.438596,1.31579 0,1.31579 -0.438597,0 0.310134,-1.00565 0,-1.31579 -0.310135,-0.31013 -1.005655,0.31014 -1.31579,0 -0.310134,-0.31013 0,-0.87719 0,-1.31579 0,-0.87719 0,-1.75438 0,-2.63158 0,-0.43859 0.438597,1.31579 0,1.31579 -0.980731,0 -1.938097,-0.62231 -2.631579,-1.31579 -0.310134,-0.31013 1.005655,0.31014 1.31579,0 0.310134,-0.31013 0,-0.87719 0,-1.31579 0,-0.71018 0.181081,-5.17261 0,-5.26316 -0.877193,-0.43859 -1.938097,2.00928 -2.631579,1.31579 -0.693482,-0.69348 0.622307,-1.93809 1.315789,-2.63157 0.310135,-0.31014 0,1.75438 0,1.31578 0,-1.31578 0,-2.631574 0,-3.947364 0,-0.438596 0,1.754384 0,1.31579 0,-5.990427 0,-2.052452 0,-6.578948 0,-0.438596 0,1.754386 0,1.31579 0,-0.877193 -0.392292,-1.846994 0,-2.631579 0.196147,-0.392293 1.005655,0.310134 1.31579,0 0.310134,-0.310135 -0.310135,-1.005655 0,-1.31579 0.310134,-0.310134 1.315789,-0.438596 1.315789,0 0,0.438597 -1.315789,0.438597 -1.315789,0 0,-0.980731 0.622307,-1.938097 1.315789,-2.631578 0.310135,-0.310135 -0.310134,1.005654 0,1.315789 0.310135,0.310135 1.31579,0.438596 1.31579,0 0,-0.980732 -1.31579,-1.650847 -1.31579,-2.631579 0,-0.620269 0.761004,1.038397 1.31579,1.31579 0.392292,0.196146 1.005655,0.310134 1.315789,0 0.620269,-0.62027 -0.877193,-2.631579 0,-2.631579 0.438597,0 -0.310134,1.005654 0,1.315789 0.310135,0.310135 1.005655,0.310135 1.31579,0 0.310134,-0.310135 -0.196147,-0.923497 0,-1.315789 0.277392,-0.554786 0.877193,-0.877193 1.315789,-1.31579 0.438597,-0.438596 0.69552,-1.315789 1.31579,-1.315789 0.620269,0 0.69552,1.315789 1.315789,1.315789 0.62027,0 1.0384,-0.761004 1.31579,-1.315789 0.19615,-0.392293 -0.4386,-1.31579 0,-1.31579 0.4386,0 -0.31014,1.005655 0,1.31579 0.31013,0.310134 0.87719,0 1.31579,0 0.4386,0 1.00565,0.310134 1.31579,0 0.78636,-0.786357 -1.42221,-2.631579 1.31579,-2.631579 0.43859,0 -0.31014,1.005655 0,1.315789 0.31013,0.310135 0.87719,0 1.31579,0 0.43859,0 1.00565,0.310135 1.31579,0 0.31013,-0.310134 -0.19615,-0.923497 0,-1.315789 0.27739,-0.554786 0.87719,-1.754386 1.31579,-1.31579 0.43859,0.438597 -1.87058,1.038397 -1.31579,1.31579 4.82456,2.41228 3.94737,-0.292398 3.94737,-2.631579 0,-0.438597 -0.4386,1.315789 0,1.315789 0.98073,0 1.93809,-0.622307 2.63157,-1.315789 0.31014,-0.310135 -0.43859,-1.31579 0,-1.31579 0.62027,0 0.76101,1.038397 1.31579,1.31579 1.62037,0.810181 2.63158,-1.419328 2.63158,-2.631579 0,-0.620269 -1.75438,0.877193 -1.31579,1.315789 2.08456,2.084556 3.94737,-1.546018 3.94737,-2.631579 0,-0.181672 -4.67406,4.310714 1.31579,1.31579 1.57271,-0.786357 -2.53429,-2.631579 1.31579,-2.631579 0.62027,0 1.31579,0.69552 1.31579,1.315789 0,0.438597 -1.51194,0.392293 -1.31579,0 0.55479,-1.109571 1.75439,-1.754386 2.63158,-2.631579 0.4386,-0.438596 -1.93606,1.31579 -1.31579,1.31579 0.98073,0 1.70118,-1.005655 2.63158,-1.31579 0.41609,-0.138696 1.00565,0.310135 1.31579,0 0.69348,-0.693482 0.43859,-2.192982 1.31579,-2.631579 0.55478,-0.277392 1.31579,1.936059 1.31579,1.31579 0,-0.980732 -1.31579,-1.650847 -1.31579,-2.631579 0,-0.620269 0.761,1.038397 1.31579,1.315789 0.39229,0.196147 1.00565,0.310135 1.31579,0 0.62027,-0.620269 -0.8772,-2.631579 0,-2.631579 0.62027,0 1.31579,0.695521 1.31579,1.31579 0,0.438596 -1.31579,0.438596 -1.31579,0 0,-0.620269 0.761,-1.038397 1.31579,-1.31579 0.39229,-0.196146 1.31579,0.438597 1.31579,0 0,-0.620269 -0.69552,-1.315789 -1.31579,-1.315789 -0.4386,0 -0.31014,1.005655 0,1.315789 0.31013,0.310135 1.00565,0.310135 1.31579,0 0.31013,-0.310134 -0.19615,-0.923496 0,-1.315789 3.50877,-7.017544 0,3.508772 0,0 0,-0.980732 0.6223,-1.938097 1.31579,-2.631579 0.31013,-0.310135 0,0.877193 0,1.31579 0,0.438596 0,0.877192 0,1.315789 0,0.438596 0.43859,1.315789 0,1.315789 -0.4386,0 -0.4386,-1.315789 0,-1.315789 0.43859,0 0,0.877193 0,1.315789 0,0.438597 0,0.877193 0,1.31579 0,0.438596 0.43859,1.315789 0,1.315789 -0.4386,0 -0.4386,-1.315789 0,-1.315789 0.43859,0 0,0.877193 0,1.315789 0,0.438597 0.31013,1.005655 0,1.31579 -0.31014,0.310134 -1.00566,-0.310135 -1.31579,0 -0.62027,0.620269 0.87719,2.631579 0,2.631579 -0.4386,0 -0.4386,-1.31579 0,-1.31579 0.43859,0 0,0.877193 0,1.31579 0,0.438596 0.43859,1.315789 0,1.315789 -0.62027,0 -0.69552,-1.315789 -1.31579,-1.315789 -0.62027,0 -1.31579,0.69552 -1.31579,1.315789 0,0.620269 0.69552,1.31579 1.31579,1.31579 0.43859,0 -0.4386,-1.31579 0,-1.31579 0.43859,0 0.31013,1.005655 0,1.31579 -0.31014,0.310134 -1.00566,-0.310135 -1.31579,0 -0.31014,0.310134 0.43859,1.315789 0,1.315789 -0.4386,0 0.31013,-1.005655 0,-1.315789 -0.31014,-0.310135 -1.31579,0.438596 -1.31579,0 0,-0.438597 1.00565,-0.310135 1.31579,0 0.31013,0.310134 0,0.877193 0,1.315789 0,0.438597 0.43859,1.31579 0,1.31579 -0.62027,0 -0.76101,-1.038397 -1.31579,-1.31579 -0.3923,-0.196146 -1.31579,-0.438596 -1.31579,0 0,0.620269 1.03839,0.761004 1.31579,1.31579 0.19614,0.392292 0.43859,1.315789 0,1.315789 -9.86205,0 3.78786,-3.209723 -2.63158,0 -0.39229,0.196147 -1.31579,-0.438596 -1.31579,0 0,0.620269 0.69552,1.31579 1.31579,1.31579 0.43859,0 0.31013,-1.005655 0,-1.31579 -0.62027,-0.620269 -2.63158,0.877193 -2.63158,0 0,-0.438596 1.00565,-0.310134 1.31579,0 0.31013,0.310135 0,0.877193 0,1.31579 0,0.438596 0.4386,1.315789 0,1.315789 -8.15905,0 -1.31579,-1.991948 -1.31579,-1.315789 0,0.438596 -0.9235,-0.196147 -1.31579,0 -3.99323,1.996616 -0.26212,1.05367 0,1.315789 0.31013,0.310135 0.4386,1.31579 0,1.31579 -0.62027,0 -0.761,-1.038397 -1.31579,-1.31579 -0.39229,-0.196146 -1.31579,-0.438596 -1.31579,0 0,0.620269 1.31579,0.695521 1.31579,1.31579 0,0.620269 -0.69552,1.315789 -1.31579,1.315789 -0.4386,0 0.31014,-1.005655 0,-1.315789 -0.31013,-0.310135 -1.31579,-0.438597 -1.31579,0 0,0.620269 1.0384,0.761004 1.31579,1.315789 0.19615,0.392293 0.4386,1.31579 0,1.31579 -0.62027,0 -0.761,-1.038397 -1.31579,-1.31579 -0.39229,-0.196146 -1.31579,-0.438596 -1.31579,0 0.53121,9.13978 1.75439,0.877193 1.31579,1.31579 -0.69348,0.693482 -0.43859,2.192982 -1.31579,2.631579 -0.55478,0.277392 -1.31579,-0.695521 -1.31579,-1.31579 0,-0.438596 1.00566,-0.310135 1.31579,0 0.31014,0.310135 0,0.877193 0,1.31579 0,0.438596 0.4386,1.315789 0,1.315789 -0.43859,0 0,-1.754386 0,-1.315789 0,7.791767 -1.31579,-3.8444 -1.31579,3.947368 0,0.438596 0.4386,-1.31579 0,-1.31579 -0.62027,0 -1.31579,0.695521 -1.31579,1.31579 0,0.438596 1.11965,-0.392293 1.31579,0 0.3923,0.784585 0,1.754386 0,2.631579 0,0.438596 0,-1.754386 0,-1.31579 0,0.877193 0,1.754386 0,2.631579 0,0.438597 0.31014,-1.625924 0,-1.315789 -0.69348,0.693482 -0.6223,1.938097 -1.31579,2.631579 -0.31013,0.310134 -0.43859,-1.31579 0,-1.31579 0.4386,0 0,0.877193 0,1.31579 0,0.438596 0.4386,1.315789 0,1.315789 -0.43859,0 0,-1.754386 0,-1.315789 0,1.315789 0,2.631579 0,3.947373 0,0.43859 -0.43859,-1.315794 0,-1.315794 0.4386,0 0,0.877194 0,1.315794 0,0.43859 0.4386,1.31578 0,1.31578 -0.43859,0 -0.43859,-1.31578 0,-1.31578 0.4386,0 0,0.87719 0,1.31578 0,8.62574 0,-4.678358 0,3.94737 0,0.4386 -0.43859,-1.31579 0,-1.31579 0.4386,0 0,0.8772 0,1.31579 0,0.4386 0,0.8772 0,1.31579 0,0.4386 0.4386,1.31579 0,1.31579 -2.738,0 -1.1497,-2.46549 0,-1.31579 0.31014,0.31014 0,0.8772 0,1.31579 0,0.4386 0.4386,1.31579 0,1.31579 -0.43859,0 0,-1.75438 0,-1.31579 0,0.8772 0.62027,2.01131 0,2.63158 -0.43859,0.4386 -0.69552,-1.31579 -1.31579,-1.31579 -0.87719,0 0.8772,2.63158 0,2.63158 -0.43859,0 0.31014,-1.00565 0,-1.31579 -0.31013,-0.31013 -1.31579,-0.4386 -1.31579,0 0,0.98073 1.31579,1.65085 1.31579,2.63158 0,0.62027 -0.761,-1.59318 -1.31579,-1.31579 -0.87719,0.4386 -1.31579,1.65085 -1.31579,2.63158 0,0.62027 0.8772,-1.75439 1.31579,-1.31579 0.62027,0.62027 0,1.75439 0,2.63158 0,0.4386 0.31014,-1.00566 0,-1.31579 -0.31013,-0.31014 -1.00565,-0.31014 -1.31579,0 -0.62026,0.62027 0.8772,2.63158 0,2.63158 -0.62026,0 -1.31578,-0.69552 -1.31578,-1.31579 0,-0.4386 1.31578,-0.4386 1.31578,0 0,0.98073 -0.43859,2.19298 -1.31578,2.63158 -0.55479,0.27739 -0.8772,-1.75439 -1.31579,-1.31579 -0.62027,0.62027 0.62026,2.01131 0,2.63158 -0.4386,0.43859 -1.31579,-0.69552 -1.31579,-1.31579 0,-0.4386 1.31579,-0.4386 1.31579,0 0,0.62027 -1.0384,0.761 -1.31579,1.31579 -0.19615,0.39229 0.43859,1.31579 0,1.31579 -0.62027,0 -0.76101,-1.0384 -1.31579,-1.31579 -0.3923,-0.19615 -1.31579,-0.4386 -1.31579,0 0,0.98073 1.31579,1.65084 1.31579,2.63158 0,0.62027 -0.76101,-1.0384 -1.31579,-1.31579 -0.3923,-0.19615 -1.31579,0.43859 -1.31579,0 0,-0.4386 1.31579,-0.4386 1.31579,0 0,0.62027 -0.76101,1.03839 -1.31579,1.31579 -0.39229,0.19614 -1.31579,-0.4386 -1.31579,0 0,0.62027 1.75438,0.87719 1.31579,1.31579 -0.42947,0.42946 -1.54155,-2.76917 -2.63158,-1.31579 -1.17688,1.56917 -1.75439,3.50877 -2.63158,5.26315 z"
         style="fill:none;fill-rule:evenodd;stroke:#000000;stroke-width:1px;stroke-linecap:butt;stroke-linejoin:miter;stroke-opacity:1" />
    </g>
    <g
       id="g4149"
       transform="translate(253.94736,0)"
       inkscape:export-xdpi="89.099998"
       inkscape:export-ydpi="89.099998">
      <rect
         style="opacity:1;fill:none;fill-opacity:1;stroke:#000000;stroke-width:4;stroke-linecap:round;stroke-linejoin:round;stroke-miterlimit:4;stroke-dasharray:none;stroke-dashoffset:0;stroke-opacity:1"
         id="rect4151"
         width="64.473686"
         height="502.63159"
         x="69.736839"
         y="131.30957" />
      <path
         style="fill:none;fill-rule:evenodd;stroke:#000000;stroke-width:1px;stroke-linecap:butt;stroke-linejoin:miter;stroke-opacity:1"
         d="m 100,128.67799 c -0.438596,-2.19298 -0.877193,-4.38596 -1.315789,-6.57894 -0.438597,0.43859 -0.877193,1.75438 -1.31579,1.31579 -0.620269,-0.62027 0,-1.75439 0,-2.63158 0,-1.75439 0.438597,4.82456 -1.315789,1.31579 -0.392293,-0.78459 0,-1.75439 0,-2.63158 0,-0.4386 0,1.75438 0,1.31579 0,-0.8772 0,-1.75439 0,-2.63158 0,-0.4386 0.310134,1.00565 0,1.31579 -0.310135,0.31013 -1.005655,0.31013 -1.31579,0 -0.310134,-0.31014 0,-0.8772 0,-1.31579 0,-0.4386 -0.438596,-1.31579 0,-1.31579 0.438597,0 0.438597,1.31579 0,1.31579 -0.438596,0 0.392293,-1.11964 0,-1.31579 -0.784585,-0.39229 -1.754386,0 -2.631579,0 -0.438596,0 1.119643,0.39229 1.31579,0 0.392292,-0.78459 0,-1.75439 0,-2.63158 0,-0.4386 0,1.75439 0,1.31579 0,-0.87719 0,-1.75439 0,-2.63158 0,-0.4386 0.438596,1.31579 0,1.31579 -0.438597,0 0.310134,-1.00565 0,-1.31579 -0.310135,-0.31013 -1.005655,0.31014 -1.31579,0 -0.310134,-0.31013 0,-0.87719 0,-1.31579 0,-0.87719 0,-1.75438 0,-2.63158 0,-0.43859 0.438597,1.31579 0,1.31579 -0.980731,0 -1.938097,-0.62231 -2.631579,-1.31579 -0.310134,-0.31013 1.005655,0.31014 1.31579,0 0.310134,-0.31013 0,-0.87719 0,-1.31579 0,-0.71018 0.181081,-5.17261 0,-5.26316 -0.877193,-0.43859 -1.938097,2.00928 -2.631579,1.31579 -0.693482,-0.69348 0.622307,-1.93809 1.315789,-2.63157 0.310135,-0.31014 0,1.75438 0,1.31578 0,-1.31578 0,-2.631574 0,-3.947364 0,-0.438596 0,1.754384 0,1.31579 0,-5.990427 0,-2.052452 0,-6.578948 0,-0.438596 0,1.754386 0,1.31579 0,-0.877193 -0.392292,-1.846994 0,-2.631579 0.196147,-0.392293 1.005655,0.310134 1.31579,0 0.310134,-0.310135 -0.310135,-1.005655 0,-1.31579 0.310134,-0.310134 1.315789,-0.438596 1.315789,0 0,0.438597 -1.315789,0.438597 -1.315789,0 0,-0.980731 0.622307,-1.938097 1.315789,-2.631578 0.310135,-0.310135 -0.310134,1.005654 0,1.315789 0.310135,0.310135 1.31579,0.438596 1.31579,0 0,-0.980732 -1.31579,-1.650847 -1.31579,-2.631579 0,-0.620269 0.761004,1.038397 1.31579,1.31579 0.392292,0.196146 1.005655,0.310134 1.315789,0 0.620269,-0.62027 -0.877193,-2.631579 0,-2.631579 0.438597,0 -0.310134,1.005654 0,1.315789 0.310135,0.310135 1.005655,0.310135 1.31579,0 0.310134,-0.310135 -0.196147,-0.923497 0,-1.315789 0.277392,-0.554786 0.877193,-0.877193 1.315789,-1.31579 0.438597,-0.438596 0.69552,-1.315789 1.31579,-1.315789 0.620269,0 0.69552,1.315789 1.315789,1.315789 0.62027,0 1.0384,-0.761004 1.31579,-1.315789 0.19615,-0.392293 -0.4386,-1.31579 0,-1.31579 0.4386,0 -0.31014,1.005655 0,1.31579 0.31013,0.310134 0.87719,0 1.31579,0 0.4386,0 1.00565,0.310134 1.31579,0 0.78636,-0.786357 -1.42221,-2.631579 1.31579,-2.631579 0.43859,0 -0.31014,1.005655 0,1.315789 0.31013,0.310135 0.87719,0 1.31579,0 0.43859,0 1.00565,0.310135 1.31579,0 0.31013,-0.310134 -0.19615,-0.923497 0,-1.315789 0.27739,-0.554786 0.87719,-1.754386 1.31579,-1.31579 0.43859,0.438597 -1.87058,1.038397 -1.31579,1.31579 4.82456,2.41228 3.94737,-0.292398 3.94737,-2.631579 0,-0.438597 -0.4386,1.315789 0,1.315789 0.98073,0 1.93809,-0.622307 2.63157,-1.315789 0.31014,-0.310135 -0.43859,-1.31579 0,-1.31579 0.62027,0 0.76101,1.038397 1.31579,1.31579 1.62037,0.810181 2.63158,-1.419328 2.63158,-2.631579 0,-0.620269 -1.75438,0.877193 -1.31579,1.315789 2.08456,2.084556 3.94737,-1.546018 3.94737,-2.631579 0,-0.181672 -4.67406,4.310714 1.31579,1.31579 1.57271,-0.786357 -2.53429,-2.631579 1.31579,-2.631579 0.62027,0 1.31579,0.69552 1.31579,1.315789 0,0.438597 -1.51194,0.392293 -1.31579,0 0.55479,-1.109571 1.75439,-1.754386 2.63158,-2.631579 0.4386,-0.438596 -1.93606,1.31579 -1.31579,1.31579 0.98073,0 1.70118,-1.005655 2.63158,-1.31579 0.41609,-0.138696 1.00565,0.310135 1.31579,0 0.69348,-0.693482 0.43859,-2.192982 1.31579,-2.631579 0.55478,-0.277392 1.31579,1.936059 1.31579,1.31579 0,-0.980732 -1.31579,-1.650847 -1.31579,-2.631579 0,-0.620269 0.761,1.038397 1.31579,1.315789 0.39229,0.196147 1.00565,0.310135 1.31579,0 0.62027,-0.620269 -0.8772,-2.631579 0,-2.631579 0.62027,0 1.31579,0.695521 1.31579,1.31579 0,0.438596 -1.31579,0.438596 -1.31579,0 0,-0.620269 0.761,-1.038397 1.31579,-1.31579 0.39229,-0.196146 1.31579,0.438597 1.31579,0 0,-0.620269 -0.69552,-1.315789 -1.31579,-1.315789 -0.4386,0 -0.31014,1.005655 0,1.315789 0.31013,0.310135 1.00565,0.310135 1.31579,0 0.31013,-0.310134 -0.19615,-0.923496 0,-1.315789 3.50877,-7.017544 0,3.508772 0,0 0,-0.980732 0.6223,-1.938097 1.31579,-2.631579 0.31013,-0.310135 0,0.877193 0,1.31579 0,0.438596 0,0.877192 0,1.315789 0,0.438596 0.43859,1.315789 0,1.315789 -0.4386,0 -0.4386,-1.315789 0,-1.315789 0.43859,0 0,0.877193 0,1.315789 0,0.438597 0,0.877193 0,1.31579 0,0.438596 0.43859,1.315789 0,1.315789 -0.4386,0 -0.4386,-1.315789 0,-1.315789 0.43859,0 0,0.877193 0,1.315789 0,0.438597 0.31013,1.005655 0,1.31579 -0.31014,0.310134 -1.00566,-0.310135 -1.31579,0 -0.62027,0.620269 0.87719,2.631579 0,2.631579 -0.4386,0 -0.4386,-1.31579 0,-1.31579 0.43859,0 0,0.877193 0,1.31579 0,0.438596 0.43859,1.315789 0,1.315789 -0.62027,0 -0.69552,-1.315789 -1.31579,-1.315789 -0.62027,0 -1.31579,0.69552 -1.31579,1.315789 0,0.620269 0.69552,1.31579 1.31579,1.31579 0.43859,0 -0.4386,-1.31579 0,-1.31579 0.43859,0 0.31013,1.005655 0,1.31579 -0.31014,0.310134 -1.00566,-0.310135 -1.31579,0 -0.31014,0.310134 0.43859,1.315789 0,1.315789 -0.4386,0 0.31013,-1.005655 0,-1.315789 -0.31014,-0.310135 -1.31579,0.438596 -1.31579,0 0,-0.438597 1.00565,-0.310135 1.31579,0 0.31013,0.310134 0,0.877193 0,1.315789 0,0.438597 0.43859,1.31579 0,1.31579 -0.62027,0 -0.76101,-1.038397 -1.31579,-1.31579 -0.3923,-0.196146 -1.31579,-0.438596 -1.31579,0 0,0.620269 1.03839,0.761004 1.31579,1.31579 0.19614,0.392292 0.43859,1.315789 0,1.315789 -9.86205,0 3.78786,-3.209723 -2.63158,0 -0.39229,0.196147 -1.31579,-0.438596 -1.31579,0 0,0.620269 0.69552,1.31579 1.31579,1.31579 0.43859,0 0.31013,-1.005655 0,-1.31579 -0.62027,-0.620269 -2.63158,0.877193 -2.63158,0 0,-0.438596 1.00565,-0.310134 1.31579,0 0.31013,0.310135 0,0.877193 0,1.31579 0,0.438596 0.4386,1.315789 0,1.315789 -8.15905,0 -1.31579,-1.991948 -1.31579,-1.315789 0,0.438596 -0.9235,-0.196147 -1.31579,0 -3.99323,1.996616 -0.26212,1.05367 0,1.315789 0.31013,0.310135 0.4386,1.31579 0,1.31579 -0.62027,0 -0.761,-1.038397 -1.31579,-1.31579 -0.39229,-0.196146 -1.31579,-0.438596 -1.31579,0 0,0.620269 1.31579,0.695521 1.31579,1.31579 0,0.620269 -0.69552,1.315789 -1.31579,1.315789 -0.4386,0 0.31014,-1.005655 0,-1.315789 -0.31013,-0.310135 -1.31579,-0.438597 -1.31579,0 0,0.620269 1.0384,0.761004 1.31579,1.315789 0.19615,0.392293 0.4386,1.31579 0,1.31579 -0.62027,0 -0.761,-1.038397 -1.31579,-1.31579 -0.39229,-0.196146 -1.31579,-0.438596 -1.31579,0 0.53121,9.13978 1.75439,0.877193 1.31579,1.31579 -0.69348,0.693482 -0.43859,2.192982 -1.31579,2.631579 -0.55478,0.277392 -1.31579,-0.695521 -1.31579,-1.31579 0,-0.438596 1.00566,-0.310135 1.31579,0 0.31014,0.310135 0,0.877193 0,1.31579 0,0.438596 0.4386,1.315789 0,1.315789 -0.43859,0 0,-1.754386 0,-1.315789 0,7.791767 -1.31579,-3.8444 -1.31579,3.947368 0,0.438596 0.4386,-1.31579 0,-1.31579 -0.62027,0 -1.31579,0.695521 -1.31579,1.31579 0,0.438596 1.11965,-0.392293 1.31579,0 0.3923,0.784585 0,1.754386 0,2.631579 0,0.438596 0,-1.754386 0,-1.31579 0,0.877193 0,1.754386 0,2.631579 0,0.438597 0.31014,-1.625924 0,-1.315789 -0.69348,0.693482 -0.6223,1.938097 -1.31579,2.631579 -0.31013,0.310134 -0.43859,-1.31579 0,-1.31579 0.4386,0 0,0.877193 0,1.31579 0,0.438596 0.4386,1.315789 0,1.315789 -0.43859,0 0,-1.754386 0,-1.315789 0,1.315789 0,2.631579 0,3.947373 0,0.43859 -0.43859,-1.315794 0,-1.315794 0.4386,0 0,0.877194 0,1.315794 0,0.43859 0.4386,1.31578 0,1.31578 -0.43859,0 -0.43859,-1.31578 0,-1.31578 0.4386,0 0,0.87719 0,1.31578 0,8.62574 0,-4.678358 0,3.94737 0,0.4386 -0.43859,-1.31579 0,-1.31579 0.4386,0 0,0.8772 0,1.31579 0,0.4386 0,0.8772 0,1.31579 0,0.4386 0.4386,1.31579 0,1.31579 -2.738,0 -1.1497,-2.46549 0,-1.31579 0.31014,0.31014 0,0.8772 0,1.31579 0,0.4386 0.4386,1.31579 0,1.31579 -0.43859,0 0,-1.75438 0,-1.31579 0,0.8772 0.62027,2.01131 0,2.63158 -0.43859,0.4386 -0.69552,-1.31579 -1.31579,-1.31579 -0.87719,0 0.8772,2.63158 0,2.63158 -0.43859,0 0.31014,-1.00565 0,-1.31579 -0.31013,-0.31013 -1.31579,-0.4386 -1.31579,0 0,0.98073 1.31579,1.65085 1.31579,2.63158 0,0.62027 -0.761,-1.59318 -1.31579,-1.31579 -0.87719,0.4386 -1.31579,1.65085 -1.31579,2.63158 0,0.62027 0.8772,-1.75439 1.31579,-1.31579 0.62027,0.62027 0,1.75439 0,2.63158 0,0.4386 0.31014,-1.00566 0,-1.31579 -0.31013,-0.31014 -1.00565,-0.31014 -1.31579,0 -0.62026,0.62027 0.8772,2.63158 0,2.63158 -0.62026,0 -1.31578,-0.69552 -1.31578,-1.31579 0,-0.4386 1.31578,-0.4386 1.31578,0 0,0.98073 -0.43859,2.19298 -1.31578,2.63158 -0.55479,0.27739 -0.8772,-1.75439 -1.31579,-1.31579 -0.62027,0.62027 0.62026,2.01131 0,2.63158 -0.4386,0.43859 -1.31579,-0.69552 -1.31579,-1.31579 0,-0.4386 1.31579,-0.4386 1.31579,0 0,0.62027 -1.0384,0.761 -1.31579,1.31579 -0.19615,0.39229 0.43859,1.31579 0,1.31579 -0.62027,0 -0.76101,-1.0384 -1.31579,-1.31579 -0.3923,-0.19615 -1.31579,-0.4386 -1.31579,0 0,0.98073 1.31579,1.65084 1.31579,2.63158 0,0.62027 -0.76101,-1.0384 -1.31579,-1.31579 -0.3923,-0.19615 -1.31579,0.43859 -1.31579,0 0,-0.4386 1.31579,-0.4386 1.31579,0 0,0.62027 -0.76101,1.03839 -1.31579,1.31579 -0.39229,0.19614 -1.31579,-0.4386 -1.31579,0 0,0.62027 1.75438,0.87719 1.31579,1.31579 -0.42947,0.42946 -1.54155,-2.76917 -2.63158,-1.31579 -1.17688,1.56917 -1.75439,3.50877 -2.63158,5.26315 z"
         id="path4153"
         inkscape:connector-curvature="0" />
    </g>
    <g
       transform="translate(507.89474,0)"
       id="g4155"
       inkscape:export-xdpi="89.099998"
       inkscape:export-ydpi="89.099998">
      <rect
         y="131.30957"
         x="69.736839"
         height="502.63159"
         width="64.473686"
         id="rect4157"
         style="opacity:1;fill:none;fill-opacity:1;stroke:#000000;stroke-width:4;stroke-linecap:round;stroke-linejoin:round;stroke-miterlimit:4;stroke-dasharray:none;stroke-dashoffset:0;stroke-opacity:1" />
      <path
         inkscape:connector-curvature="0"
         id="path4159"
         d="m 100,128.67799 c -0.438596,-2.19298 -0.877193,-4.38596 -1.315789,-6.57894 -0.438597,0.43859 -0.877193,1.75438 -1.31579,1.31579 -0.620269,-0.62027 0,-1.75439 0,-2.63158 0,-1.75439 0.438597,4.82456 -1.315789,1.31579 -0.392293,-0.78459 0,-1.75439 0,-2.63158 0,-0.4386 0,1.75438 0,1.31579 0,-0.8772 0,-1.75439 0,-2.63158 0,-0.4386 0.310134,1.00565 0,1.31579 -0.310135,0.31013 -1.005655,0.31013 -1.31579,0 -0.310134,-0.31014 0,-0.8772 0,-1.31579 0,-0.4386 -0.438596,-1.31579 0,-1.31579 0.438597,0 0.438597,1.31579 0,1.31579 -0.438596,0 0.392293,-1.11964 0,-1.31579 -0.784585,-0.39229 -1.754386,0 -2.631579,0 -0.438596,0 1.119643,0.39229 1.31579,0 0.392292,-0.78459 0,-1.75439 0,-2.63158 0,-0.4386 0,1.75439 0,1.31579 0,-0.87719 0,-1.75439 0,-2.63158 0,-0.4386 0.438596,1.31579 0,1.31579 -0.438597,0 0.310134,-1.00565 0,-1.31579 -0.310135,-0.31013 -1.005655,0.31014 -1.31579,0 -0.310134,-0.31013 0,-0.87719 0,-1.31579 0,-0.87719 0,-1.75438 0,-2.63158 0,-0.43859 0.438597,1.31579 0,1.31579 -0.980731,0 -1.938097,-0.62231 -2.631579,-1.31579 -0.310134,-0.31013 1.005655,0.31014 1.31579,0 0.310134,-0.31013 0,-0.87719 0,-1.31579 0,-0.71018 0.181081,-5.17261 0,-5.26316 -0.877193,-0.43859 -1.938097,2.00928 -2.631579,1.31579 -0.693482,-0.69348 0.622307,-1.93809 1.315789,-2.63157 0.310135,-0.31014 0,1.75438 0,1.31578 0,-1.31578 0,-2.631574 0,-3.947364 0,-0.438596 0,1.754384 0,1.31579 0,-5.990427 0,-2.052452 0,-6.578948 0,-0.438596 0,1.754386 0,1.31579 0,-0.877193 -0.392292,-1.846994 0,-2.631579 0.196147,-0.392293 1.005655,0.310134 1.31579,0 0.310134,-0.310135 -0.310135,-1.005655 0,-1.31579 0.310134,-0.310134 1.315789,-0.438596 1.315789,0 0,0.438597 -1.315789,0.438597 -1.315789,0 0,-0.980731 0.622307,-1.938097 1.315789,-2.631578 0.310135,-0.310135 -0.310134,1.005654 0,1.315789 0.310135,0.310135 1.31579,0.438596 1.31579,0 0,-0.980732 -1.31579,-1.650847 -1.31579,-2.631579 0,-0.620269 0.761004,1.038397 1.31579,1.31579 0.392292,0.196146 1.005655,0.310134 1.315789,0 0.620269,-0.62027 -0.877193,-2.631579 0,-2.631579 0.438597,0 -0.310134,1.005654 0,1.315789 0.310135,0.310135 1.005655,0.310135 1.31579,0 0.310134,-0.310135 -0.196147,-0.923497 0,-1.315789 0.277392,-0.554786 0.877193,-0.877193 1.315789,-1.31579 0.438597,-0.438596 0.69552,-1.315789 1.31579,-1.315789 0.620269,0 0.69552,1.315789 1.315789,1.315789 0.62027,0 1.0384,-0.761004 1.31579,-1.315789 0.19615,-0.392293 -0.4386,-1.31579 0,-1.31579 0.4386,0 -0.31014,1.005655 0,1.31579 0.31013,0.310134 0.87719,0 1.31579,0 0.4386,0 1.00565,0.310134 1.31579,0 0.78636,-0.786357 -1.42221,-2.631579 1.31579,-2.631579 0.43859,0 -0.31014,1.005655 0,1.315789 0.31013,0.310135 0.87719,0 1.31579,0 0.43859,0 1.00565,0.310135 1.31579,0 0.31013,-0.310134 -0.19615,-0.923497 0,-1.315789 0.27739,-0.554786 0.87719,-1.754386 1.31579,-1.31579 0.43859,0.438597 -1.87058,1.038397 -1.31579,1.31579 4.82456,2.41228 3.94737,-0.292398 3.94737,-2.631579 0,-0.438597 -0.4386,1.315789 0,1.315789 0.98073,0 1.93809,-0.622307 2.63157,-1.315789 0.31014,-0.310135 -0.43859,-1.31579 0,-1.31579 0.62027,0 0.76101,1.038397 1.31579,1.31579 1.62037,0.810181 2.63158,-1.419328 2.63158,-2.631579 0,-0.620269 -1.75438,0.877193 -1.31579,1.315789 2.08456,2.084556 3.94737,-1.546018 3.94737,-2.631579 0,-0.181672 -4.67406,4.310714 1.31579,1.31579 1.57271,-0.786357 -2.53429,-2.631579 1.31579,-2.631579 0.62027,0 1.31579,0.69552 1.31579,1.315789 0,0.438597 -1.51194,0.392293 -1.31579,0 0.55479,-1.109571 1.75439,-1.754386 2.63158,-2.631579 0.4386,-0.438596 -1.93606,1.31579 -1.31579,1.31579 0.98073,0 1.70118,-1.005655 2.63158,-1.31579 0.41609,-0.138696 1.00565,0.310135 1.31579,0 0.69348,-0.693482 0.43859,-2.192982 1.31579,-2.631579 0.55478,-0.277392 1.31579,1.936059 1.31579,1.31579 0,-0.980732 -1.31579,-1.650847 -1.31579,-2.631579 0,-0.620269 0.761,1.038397 1.31579,1.315789 0.39229,0.196147 1.00565,0.310135 1.31579,0 0.62027,-0.620269 -0.8772,-2.631579 0,-2.631579 0.62027,0 1.31579,0.695521 1.31579,1.31579 0,0.438596 -1.31579,0.438596 -1.31579,0 0,-0.620269 0.761,-1.038397 1.31579,-1.31579 0.39229,-0.196146 1.31579,0.438597 1.31579,0 0,-0.620269 -0.69552,-1.315789 -1.31579,-1.315789 -0.4386,0 -0.31014,1.005655 0,1.315789 0.31013,0.310135 1.00565,0.310135 1.31579,0 0.31013,-0.310134 -0.19615,-0.923496 0,-1.315789 3.50877,-7.017544 0,3.508772 0,0 0,-0.980732 0.6223,-1.938097 1.31579,-2.631579 0.31013,-0.310135 0,0.877193 0,1.31579 0,0.438596 0,0.877192 0,1.315789 0,0.438596 0.43859,1.315789 0,1.315789 -0.4386,0 -0.4386,-1.315789 0,-1.315789 0.43859,0 0,0.877193 0,1.315789 0,0.438597 0,0.877193 0,1.31579 0,0.438596 0.43859,1.315789 0,1.315789 -0.4386,0 -0.4386,-1.315789 0,-1.315789 0.43859,0 0,0.877193 0,1.315789 0,0.438597 0.31013,1.005655 0,1.31579 -0.31014,0.310134 -1.00566,-0.310135 -1.31579,0 -0.62027,0.620269 0.87719,2.631579 0,2.631579 -0.4386,0 -0.4386,-1.31579 0,-1.31579 0.43859,0 0,0.877193 0,1.31579 0,0.438596 0.43859,1.315789 0,1.315789 -0.62027,0 -0.69552,-1.315789 -1.31579,-1.315789 -0.62027,0 -1.31579,0.69552 -1.31579,1.315789 0,0.620269 0.69552,1.31579 1.31579,1.31579 0.43859,0 -0.4386,-1.31579 0,-1.31579 0.43859,0 0.31013,1.005655 0,1.31579 -0.31014,0.310134 -1.00566,-0.310135 -1.31579,0 -0.31014,0.310134 0.43859,1.315789 0,1.315789 -0.4386,0 0.31013,-1.005655 0,-1.315789 -0.31014,-0.310135 -1.31579,0.438596 -1.31579,0 0,-0.438597 1.00565,-0.310135 1.31579,0 0.31013,0.310134 0,0.877193 0,1.315789 0,0.438597 0.43859,1.31579 0,1.31579 -0.62027,0 -0.76101,-1.038397 -1.31579,-1.31579 -0.3923,-0.196146 -1.31579,-0.438596 -1.31579,0 0,0.620269 1.03839,0.761004 1.31579,1.31579 0.19614,0.392292 0.43859,1.315789 0,1.315789 -9.86205,0 3.78786,-3.209723 -2.63158,0 -0.39229,0.196147 -1.31579,-0.438596 -1.31579,0 0,0.620269 0.69552,1.31579 1.31579,1.31579 0.43859,0 0.31013,-1.005655 0,-1.31579 -0.62027,-0.620269 -2.63158,0.877193 -2.63158,0 0,-0.438596 1.00565,-0.310134 1.31579,0 0.31013,0.310135 0,0.877193 0,1.31579 0,0.438596 0.4386,1.315789 0,1.315789 -8.15905,0 -1.31579,-1.991948 -1.31579,-1.315789 0,0.438596 -0.9235,-0.196147 -1.31579,0 -3.99323,1.996616 -0.26212,1.05367 0,1.315789 0.31013,0.310135 0.4386,1.31579 0,1.31579 -0.62027,0 -0.761,-1.038397 -1.31579,-1.31579 -0.39229,-0.196146 -1.31579,-0.438596 -1.31579,0 0,0.620269 1.31579,0.695521 1.31579,1.31579 0,0.620269 -0.69552,1.315789 -1.31579,1.315789 -0.4386,0 0.31014,-1.005655 0,-1.315789 -0.31013,-0.310135 -1.31579,-0.438597 -1.31579,0 0,0.620269 1.0384,0.761004 1.31579,1.315789 0.19615,0.392293 0.4386,1.31579 0,1.31579 -0.62027,0 -0.761,-1.038397 -1.31579,-1.31579 -0.39229,-0.196146 -1.31579,-0.438596 -1.31579,0 0.53121,9.13978 1.75439,0.877193 1.31579,1.31579 -0.69348,0.693482 -0.43859,2.192982 -1.31579,2.631579 -0.55478,0.277392 -1.31579,-0.695521 -1.31579,-1.31579 0,-0.438596 1.00566,-0.310135 1.31579,0 0.31014,0.310135 0,0.877193 0,1.31579 0,0.438596 0.4386,1.315789 0,1.315789 -0.43859,0 0,-1.754386 0,-1.315789 0,7.791767 -1.31579,-3.8444 -1.31579,3.947368 0,0.438596 0.4386,-1.31579 0,-1.31579 -0.62027,0 -1.31579,0.695521 -1.31579,1.31579 0,0.438596 1.11965,-0.392293 1.31579,0 0.3923,0.784585 0,1.754386 0,2.631579 0,0.438596 0,-1.754386 0,-1.31579 0,0.877193 0,1.754386 0,2.631579 0,0.438597 0.31014,-1.625924 0,-1.315789 -0.69348,0.693482 -0.6223,1.938097 -1.31579,2.631579 -0.31013,0.310134 -0.43859,-1.31579 0,-1.31579 0.4386,0 0,0.877193 0,1.31579 0,0.438596 0.4386,1.315789 0,1.315789 -0.43859,0 0,-1.754386 0,-1.315789 0,1.315789 0,2.631579 0,3.947373 0,0.43859 -0.43859,-1.315794 0,-1.315794 0.4386,0 0,0.877194 0,1.315794 0,0.43859 0.4386,1.31578 0,1.31578 -0.43859,0 -0.43859,-1.31578 0,-1.31578 0.4386,0 0,0.87719 0,1.31578 0,8.62574 0,-4.678358 0,3.94737 0,0.4386 -0.43859,-1.31579 0,-1.31579 0.4386,0 0,0.8772 0,1.31579 0,0.4386 0,0.8772 0,1.31579 0,0.4386 0.4386,1.31579 0,1.31579 -2.738,0 -1.1497,-2.46549 0,-1.31579 0.31014,0.31014 0,0.8772 0,1.31579 0,0.4386 0.4386,1.31579 0,1.31579 -0.43859,0 0,-1.75438 0,-1.31579 0,0.8772 0.62027,2.01131 0,2.63158 -0.43859,0.4386 -0.69552,-1.31579 -1.31579,-1.31579 -0.87719,0 0.8772,2.63158 0,2.63158 -0.43859,0 0.31014,-1.00565 0,-1.31579 -0.31013,-0.31013 -1.31579,-0.4386 -1.31579,0 0,0.98073 1.31579,1.65085 1.31579,2.63158 0,0.62027 -0.761,-1.59318 -1.31579,-1.31579 -0.87719,0.4386 -1.31579,1.65085 -1.31579,2.63158 0,0.62027 0.8772,-1.75439 1.31579,-1.31579 0.62027,0.62027 0,1.75439 0,2.63158 0,0.4386 0.31014,-1.00566 0,-1.31579 -0.31013,-0.31014 -1.00565,-0.31014 -1.31579,0 -0.62026,0.62027 0.8772,2.63158 0,2.63158 -0.62026,0 -1.31578,-0.69552 -1.31578,-1.31579 0,-0.4386 1.31578,-0.4386 1.31578,0 0,0.98073 -0.43859,2.19298 -1.31578,2.63158 -0.55479,0.27739 -0.8772,-1.75439 -1.31579,-1.31579 -0.62027,0.62027 0.62026,2.01131 0,2.63158 -0.4386,0.43859 -1.31579,-0.69552 -1.31579,-1.31579 0,-0.4386 1.31579,-0.4386 1.31579,0 0,0.62027 -1.0384,0.761 -1.31579,1.31579 -0.19615,0.39229 0.43859,1.31579 0,1.31579 -0.62027,0 -0.76101,-1.0384 -1.31579,-1.31579 -0.3923,-0.19615 -1.31579,-0.4386 -1.31579,0 0,0.98073 1.31579,1.65084 1.31579,2.63158 0,0.62027 -0.76101,-1.0384 -1.31579,-1.31579 -0.3923,-0.19615 -1.31579,0.43859 -1.31579,0 0,-0.4386 1.31579,-0.4386 1.31579,0 0,0.62027 -0.76101,1.03839 -1.31579,1.31579 -0.39229,0.19614 -1.31579,-0.4386 -1.31579,0 0,0.62027 1.75438,0.87719 1.31579,1.31579 -0.42947,0.42946 -1.54155,-2.76917 -2.63158,-1.31579 -1.17688,1.56917 -1.75439,3.50877 -2.63158,5.26315 z"
         style="fill:none;fill-rule:evenodd;stroke:#000000;stroke-width:1px;stroke-linecap:butt;stroke-linejoin:miter;stroke-opacity:1" />
    </g>
    <path
       id="rect4161"
       style="color:#000000;font-style:normal;font-variant:normal;font-weight:normal;font-stretch:normal;font-size:medium;line-height:normal;font-family:sans-serif;text-indent:0;text-align:start;text-decoration:none;text-decoration-line:none;text-decoration-style:solid;text-decoration-color:#000000;letter-spacing:normal;word-spacing:normal;text-transform:none;direction:ltr;block-progression:tb;writing-mode:lr-tb;baseline-shift:baseline;text-anchor:start;white-space:normal;clip-rule:nonzero;display:inline;overflow:visible;visibility:visible;opacity:1;isolation:auto;mix-blend-mode:normal;color-interpolation:sRGB;color-interpolation-filters:linearRGB;solid-color:#000000;solid-opacity:1;fill:#000000;fill-opacity:1;fill-rule:nonzero;stroke:none;stroke-width:4;stroke-linecap:round;stroke-linejoin:round;stroke-miterlimit:4;stroke-dasharray:none;stroke-dashoffset:0;stroke-opacity:1;color-rendering:auto;image-rendering:auto;shape-rendering:auto;text-rendering:auto;enable-background:accumulate"
       d="m 46.742188,631.94141 c -1.104524,1.1e-4 -1.99989,0.89548 -2,2 l 0,25 c 1.1e-4,1.10452 0.895476,1.99989 2,2 l 85.664062,0 c 0.19273,66.30113 28.06101,116.41515 69.79687,150.01757 33.66905,27.10767 76.3473,43.47486 120.79688,49.01563 l 0,53.46289 C 262.80168,907.71821 204.55214,886.77465 159.18555,850.78906 105.80351,808.44549 70.236327,745.31217 70.236328,661.57227 l -1,0 c -10e-7,84.02325 35.736182,147.48992 89.328122,190 45.56878,36.14595 104.03323,57.14826 164.43555,62.86914 l 0,53.02539 -144.05273,0 c -1.10452,1.1e-4 -1.99989,0.89548 -2,2 l 0,63.1582 c 1.1e-4,1.1045 0.89548,1.9999 2,2 l 357.89453,0 c 1.10452,-10e-5 1.99989,-0.8955 2,-2 l 0,-63.1582 c -1.1e-4,-1.10452 -0.89548,-1.99989 -2,-2 l -144.05274,0 0,-53.20899 c 58.36974,-5.85187 114.62595,-26.09284 158.81641,-60.93359 53.67264,-42.31673 89.52593,-106.17401 89.68359,-191.75 l -1,-0.002 c -0.15715,85.29779 -35.84397,148.8187 -89.30273,190.96679 C 506.997,887.2212 450.95629,907.40208 392.78906,913.2519 l 0,-53.4375 c 42.90188,-5.57803 83.9452,-21.35685 116.57227,-47.46679 41.80174,-33.45204 69.76291,-83.87674 70.07422,-151.40625 l 87.04297,0 c 1.10452,-1.1e-4 1.99989,-0.89548 2,-2 l 0,-25 c -1.1e-4,-1.10452 -0.89548,-1.99989 -2,-2 l -111.8418,0 c -1.10452,1.1e-4 -1.99989,0.89548 -2,2 l 0,25 c 1.1e-4,1.10452 0.89548,1.99989 2,2 l 24.01172,0 c -0.31118,67.31207 -28.14582,117.47364 -69.7793,150.79101 -32.47015,25.98438 -73.34229,41.71025 -116.08008,47.28516 l 0,-198.07617 19.74219,0 c 1.10452,-1.1e-4 1.99989,-0.89548 2,-2 l 0,-25 c -1.1e-4,-1.10452 -0.89548,-1.99989 -2,-2 l -111.8418,0 c -1.10452,1.1e-4 -1.99989,0.89548 -2,2 l 0,25 c 1.1e-4,1.10452 0.89548,1.99989 2,2 l 22.31055,0 0,198.24023 C 278.71483,853.64378 236.20712,837.32677 202.69531,810.3457 161.12418,776.8759 133.38579,727.02214 133.19336,660.94141 l 25.39062,0 c 1.10452,-1.1e-4 1.99989,-0.89548 2,-2 l 0,-25 c -1.1e-4,-1.10452 -0.89548,-1.99989 -2,-2 z m 2,4 107.841792,0 0,21 -107.841792,0 z m 253.947262,0 107.8418,0 0,21 -107.8418,0 z m 253.94727,0 107.8418,0 0,21 -107.8418,0 z m -228.77734,27.17578 60.07031,0 0,196.48828 c -10.66433,1.19564 -21.42717,1.77048 -32.19141,1.71094 -9.31555,-0.0515 -18.62963,-0.58299 -27.8789,-1.57227 z m 60.07031,197.28125 0,53.31836 c -10.92372,0.94688 -21.91189,1.39387 -32.90039,1.33398 -9.06961,-0.0494 -18.13787,-0.44568 -27.16992,-1.17969 l 0,-53.33593 c 20.43417,2.11678 41.11392,1.93895 60.07031,-0.13672 z m 0,54.32226 0,50.57032 -60.07031,0 0,-50.41602 c 9.03003,0.73151 18.09711,1.12636 27.16406,1.17578 10.98992,0.0599 21.97992,-0.38595 32.90625,-1.33008 z m -206.98242,56.7461 353.89453,0 0,59.1582 -353.89453,0 z"
       inkscape:export-xdpi="89.099998"
       inkscape:export-ydpi="89.099998" />
    <path
       style="fill:#000000;stroke:none;stroke-width:1px;stroke-linecap:butt;stroke-linejoin:miter;stroke-opacity:1;fill-opacity:1"
       d="m 49.828126,646.50714 0,-10.18519 52.777774,0 52.77778,0 0,10.18519 0,10.18518 -52.77778,0 -52.777774,0 0,-10.18518 z"
       id="path4277"
       inkscape:connector-curvature="0"
       inkscape:export-xdpi="89.099998"
       inkscape:export-ydpi="89.099998" />
    <path
       style="fill:#000000;stroke:none;stroke-width:1px;stroke-linecap:butt;stroke-linejoin:miter;stroke-opacity:1;fill-opacity:1"
       d="m 303.53183,646.50714 0,-10.18519 52.77778,0 52.77778,0 0,10.18519 0,10.18518 -52.77778,0 -52.77778,0 0,-10.18518 z"
       id="path4279"
       inkscape:connector-curvature="0"
       inkscape:export-xdpi="89.099998"
       inkscape:export-ydpi="89.099998" />
    <path
       style="fill:#000000;stroke:none;stroke-width:1px;stroke-linecap:butt;stroke-linejoin:miter;stroke-opacity:1;fill-opacity:1"
       d="m 583.62442,657.15925 c 15.02315,-0.31127 39.60648,-0.31127 54.62963,0 15.02315,0.31127 2.73148,0.56594 -27.31481,0.56594 -30.0463,0 -42.33797,-0.25467 -27.31482,-0.56594 z"
       id="path4281"
       inkscape:connector-curvature="0"
       inkscape:export-xdpi="89.099998"
       inkscape:export-ydpi="89.099998" />
    <path
       style="fill:#000000;stroke:none;stroke-width:1px;stroke-linecap:butt;stroke-linejoin:miter;stroke-opacity:1;fill-opacity:1"
       d="m 557.23553,646.50714 0,-10.18519 52.77778,0 52.77778,0 0,10.18519 0,10.18518 -52.77778,0 -52.77778,0 0,-10.18518 z"
       id="path4283"
       inkscape:connector-curvature="0"
       inkscape:export-xdpi="89.099998"
       inkscape:export-ydpi="89.099998" />
    <path
       style="fill:#000000;stroke:none;stroke-width:1px;stroke-linecap:butt;stroke-linejoin:miter;stroke-opacity:1;fill-opacity:1"
       d="m 332.6985,859.11949 c -3.03444,-0.79298 -3.24074,-7.02724 -3.24074,-97.93332 l 0,-97.08644 28.7037,0 28.7037,0 0,96.99074 0,96.99074 -5.78703,1.15741 c -6.45826,1.29165 -43.32854,1.20087 -48.37963,-0.11908 l 0,-5e-5 z"
       id="path4285"
       inkscape:connector-curvature="0"
       inkscape:export-xdpi="89.099998"
       inkscape:export-ydpi="89.099998" />
    <path
       style="fill:#000000;stroke:none;stroke-width:1px;stroke-linecap:butt;stroke-linejoin:miter;stroke-opacity:1;fill-opacity:1"
       d="M 293.67796,908.51015 C 203.01413,891.61634 131.74509,842.37094 96.338561,772.15279 81.802032,743.32399 72.050348,704.64266 72.050348,675.81044 l 0,-13.56256 29.327712,0 29.32772,0 2.2067,20.34587 c 6.0476,55.75911 30.98243,100.47574 74.17627,133.02327 26.70491,20.12276 63.1521,35.77091 98.28941,42.19938 l 16.67219,3.0502 0,25.69065 0,25.69063 -5.09259,-0.17445 c -2.80093,-0.0959 -13.27684,-1.69942 -23.2798,-3.56331 l 0,3e-5 z"
       id="path4287"
       inkscape:connector-curvature="0"
       inkscape:export-xdpi="89.099998"
       inkscape:export-ydpi="89.099998" />
    <path
       style="fill:#000000;stroke:none;stroke-width:1px;stroke-linecap:butt;stroke-linejoin:miter;stroke-opacity:1;fill-opacity:1"
       d="m 330.69232,912.86516 c -0.67901,-0.67901 -1.23456,-12.34568 -1.23456,-25.92593 l 0,-24.69135 28.7037,0 28.7037,0 0,24.80187 c 0,20.90775 -0.45991,24.97836 -2.92923,25.92593 -3.9914,1.53164 -51.70048,1.43261 -53.24361,-0.11052 z"
       id="path4289"
       inkscape:connector-curvature="0"
       inkscape:export-xdpi="89.099998"
       inkscape:export-ydpi="89.099998" />
    <path
       style="fill:#000000;stroke:none;stroke-width:1px;stroke-linecap:butt;stroke-linejoin:miter;stroke-opacity:1;fill-opacity:1"
       d="m 394.27257,886.40586 0,-25.842 6.94444,-1.15633 c 26.46841,-4.40728 59.13245,-15.47279 80.0926,-27.13273 56.74374,-31.56605 93.60529,-88.97966 97.57094,-151.97137 l 1.13669,-18.05555 29.34989,0 29.34988,0 -0.007,12.5 c -0.009,14.8534 -4.01743,40.63454 -9.2075,59.21799 -22.53126,80.67467 -90.5216,143.47299 -182.09662,168.19095 -13.97655,3.77258 -46.20941,10.05393 -51.74403,10.08361 -0.76389,0.004 -1.38889,-11.62146 -1.38889,-25.83457 z"
       id="path4291"
       inkscape:connector-curvature="0"
       inkscape:export-xdpi="89.099998"
       inkscape:export-ydpi="89.099998" />
    <path
       style="fill:#000000;stroke:none;stroke-width:1px;stroke-linecap:butt;stroke-linejoin:miter;stroke-opacity:1;fill-opacity:1"
       d="m 329.45776,940.12948 0,-23.97025 28.7037,-0.0445 28.7037,-0.0445 0,24.01476 0,24.01475 -28.7037,0 -28.7037,0 0,-23.97025 z"
       id="path4293"
       inkscape:connector-curvature="0"
       inkscape:export-xdpi="89.099998"
       inkscape:export-ydpi="89.099998" />
    <path
       style="fill:#000000;stroke:none;stroke-width:1px;stroke-linecap:butt;stroke-linejoin:miter;stroke-opacity:1;fill-opacity:1"
       d="m 181.30961,1000.2108 0,-28.70366 175.92592,0 175.92593,0 0,28.70366 0,28.7037 -175.92593,0 -175.92592,0 0,-28.7037 z"
       id="path4295"
       inkscape:connector-curvature="0"
       inkscape:export-xdpi="89.099998"
       inkscape:export-ydpi="89.099998" />
  </g>
  <g
     inkscape:groupmode="layer"
     id="layer2"
     inkscape:label="Calque 2" />
</svg>
